<?xml version="1.0" encoding="utf-8"?>
<!-- Generator: Adobe Illustrator 19.0.0, SVG Export Plug-In . SVG Version: 6.00 Build 0)  -->
<svg version="1.1" xmlns="http://www.w3.org/2000/svg" xmlns:xlink="http://www.w3.org/1999/xlink" x="0px" y="0px"
	 viewBox="0 0 500 200" style="enable-background:new 0 0 500 200;" xml:space="preserve">
<style type="text/css">
	.st0{fill:url(#XMLID_5_);}
	.st1{opacity:0.3;fill:#FFFFFF;}
	.st2{opacity:0.31;fill:none;stroke:#FFFFFF;stroke-miterlimit:10;}
	.st3{fill:#606060;}
	.st4{fill:#FFFFFF;}
</style>
<g id="bg">
	<radialGradient id="XMLID_5_" cx="5.042" cy="1.6807" r="443.8582" gradientTransform="matrix(1.1316 0.4328 -0.5299 0.8792 1.5142 -1.9793)" gradientUnits="userSpaceOnUse">
		<stop  offset="0" style="stop-color:#3862A0"/>
		<stop  offset="1" style="stop-color:#01073E"/>
	</radialGradient>
	<rect id="XMLID_2_" x="0" y="0" class="st0" width="500" height="200"/>
	<rect id="XMLID_3_" class="st1" width="500" height="200"/>
</g>
<g id="_x23_spider_x3F_classname_x3D_spider_x26_origin_x3D_bc">
	<line id="XMLID_1_" class="st2" x1="101.5" y1="175" x2="101.5" y2="-43"/>
	<path id="_x23_body" class="st3" d="M81.9,180.6c4,2.8,8.6,4.2,12.2,4.9c-2.9,1.4-6.3,3.8-9.2,8c-0.4,0.6-0.3,1.5,0.3,2
		c0.6,0.4,1.5,0.3,2-0.3c2.9-4.1,6.1-6.2,8.8-7.4c-1.6,2-3.4,5.2-4.9,10.3c-0.2,0.7,0.2,1.5,0.9,1.8c0.7,0.2,1.5-0.2,1.8-0.9
		c2.3-7.8,5.1-10.4,6.6-11.3c0.2,0.6,0.6,1,1,1.3c0,0.2-0.1,0.3-0.1,0.5c0,0.7,0.4,1.3,0.8,1.4l0.2-1.6c0,0,0.1,0,0.1,0
		c0,0,0.1,0,0.1,0l0.2,1.6c0.5-0.2,0.8-0.7,0.8-1.4c0-0.2,0-0.4-0.1-0.5c0.4-0.3,0.8-0.7,1-1.3c1.5,0.9,4.2,3.5,6.6,11.3
		c0.2,0.7,1,1.2,1.8,0.9c0.7-0.2,1.2-1,0.9-1.8c-1.5-5-3.2-8.2-4.9-10.2c2.7,1.2,5.9,3.3,8.8,7.4c0.4,0.6,1.3,0.8,2,0.3
		c0.6-0.4,0.8-1.3,0.3-2c-3-4.2-6.3-6.6-9.2-8c3.6-0.7,8.2-2.1,12.2-4.9c0.6-0.4,0.8-1.3,0.3-2c-0.3-0.4-0.7-0.6-1.1-0.6
		c-0.3,0-0.6,0.1-0.8,0.3c-4,2.8-8.7,4.1-12.2,4.6c2.9-2.6,6.4-7.4,9.3-16.4c0.2-0.7-0.2-1.5-0.9-1.8c-0.1,0-0.3-0.1-0.4-0.1
		c-0.6,0-1.1,0.4-1.3,1c-2.6,8-5.5,12.3-7.9,14.6c0.2-0.8,0.3-1.6,0.3-2.5c0-4.2-2.6-7.6-5.7-7.6c-3.1,0-5.7,3.4-5.7,7.6
		c0,0.9,0.1,1.7,0.3,2.5c-2.4-2.3-5.3-6.6-7.9-14.6c-0.2-0.6-0.7-1-1.3-1c-0.1,0-0.3,0-0.4,0.1c-0.7,0.2-1.1,1-0.9,1.8
		c2.9,9.1,6.4,13.9,9.3,16.4c-3.5-0.6-8.2-1.8-12.2-4.6c-0.2-0.2-0.5-0.3-0.8-0.3c-0.4,0-0.9,0.2-1.1,0.6
		C81.1,179.3,81.3,180.2,81.9,180.6z"/>
	<ellipse id="_x23_ass" class="st4" cx="102.4" cy="174.6" rx="6.6" ry="7.7"/>
</g>
</svg>