<?xml version="1.0" encoding="utf-8"?>
<!-- Generator: Adobe Illustrator 19.0.0, SVG Export Plug-In . SVG Version: 6.00 Build 0)  -->
<svg version="1.1" id="Layer_1" xmlns="http://www.w3.org/2000/svg" xmlns:xlink="http://www.w3.org/1999/xlink" x="0px" y="0px"
	 viewBox="0 0 500 500" style="enable-background:new 0 0 500 500;" xml:space="preserve">
<style type="text/css">
	.st0{fill:none;stroke:#E6E6E6;stroke-miterlimit:10;}
	.st1{fill:#F7931E;stroke:#F15A24;stroke-width:12;stroke-miterlimit:10;}
	.st2{fill:#736357;stroke:#534741;stroke-width:5;stroke-miterlimit:10;}
	.st3{fill:none;stroke:#39B54A;stroke-width:4;stroke-miterlimit:10;}
	.st4{fill:#8CC63F;stroke:#39B54A;stroke-width:4;stroke-miterlimit:10;}
	.st5{fill:#B3B3B3;stroke:#808080;stroke-width:5;stroke-miterlimit:10;}
</style>
<g id="#sun?o=250,250">
	<circle id="sun" class="st0" cx="250" cy="250" r="135"/>
	<polygon id="earth_path" class="st1" points="239.9,268 229.8,250.5 239.9,233 260.1,233 270.2,250.5 260.1,268 	"/>
	<g id="#earth?o=115,250">
		<polygon id="earth" class="st2" points="101.8,272.5 88.7,250 101.8,227.5 128.2,227.5 141.3,250 128.2,272.5 		"/>
		<line id="tronc" class="st3" x1="115" y1="219" x2="115" y2="227"/>
		<polygon id="tree" class="st4" points="109.5,221 104.3,211.5 109.5,202 120,202 125.2,211.5 120,221 		"/>
		<circle id="moon_path" class="st0" cx="115" cy="250" r="66.2"/>
		<polygon id="#moon" class="st5" points="108.5,327.5 101.9,316 108.5,304.5 121.6,304.5 128.2,316 121.6,327.5 		"/>
	</g>
</g>
</svg>